<svg width="25" height="24" viewBox="0 0 25 24" fill="none" xmlns="http://www.w3.org/2000/svg">
<path d="M21.8384 24H21.677C3.02718 22.9569 0.379189 7.65231 0.00904002 2.98154C-0.0207852 2.61838 0.0233607 2.25307 0.138948 1.90653C0.254536 1.56 0.439293 1.23905 0.682634 0.962079C0.925975 0.685108 1.22312 0.457558 1.55703 0.292467C1.89095 0.127376 2.25508 0.0279894 2.62856 8.65468e-07H7.85811C8.23828 -0.00035707 8.6098 0.110317 8.92455 0.317689C9.2393 0.52506 9.48277 0.819573 9.62343 1.16308L11.0661 4.61539C11.205 4.95097 11.2394 5.31884 11.1652 5.67332C11.091 6.02779 10.9113 6.35324 10.6485 6.60923L8.62688 8.59385C8.94266 10.3392 9.80204 11.948 11.0887 13.2027C12.3755 14.4575 14.0274 15.2975 15.8211 15.6092L17.8806 13.6246C18.1478 13.3718 18.4856 13.2012 18.8518 13.1339C19.2181 13.0665 19.5966 13.1056 19.9402 13.2462L23.5183 14.64C23.8661 14.7811 24.1629 15.0198 24.3708 15.3255C24.5787 15.6313 24.6883 15.9904 24.6857 16.3569V21.2308C24.6857 21.9652 24.3857 22.6696 23.8517 23.1889C23.3177 23.7082 22.5935 24 21.8384 24ZM2.85634 1.84615C2.60463 1.84615 2.36322 1.94341 2.18523 2.11652C2.00724 2.28963 1.90724 2.52442 1.90724 2.76923V2.84308C2.34383 8.30769 5.14368 21.2308 21.7814 22.1538C21.9061 22.1613 22.0311 22.1448 22.1492 22.1052C22.2673 22.0656 22.3762 22.0038 22.4697 21.9232C22.5632 21.8425 22.6393 21.7448 22.6939 21.6355C22.7484 21.5262 22.7802 21.4074 22.7875 21.2862V16.3569L19.2094 14.9631L16.4854 17.5938L16.0299 17.5385C7.77269 16.5323 6.65275 8.50154 6.65275 8.41846L6.5958 7.97539L9.29125 5.32616L7.8676 1.84615H2.85634Z" fill="white" fill-opacity="0.8"/>
</svg>
