<svg width="25" height="24" viewBox="0 0 25 24" fill="none" xmlns="http://www.w3.org/2000/svg">
<path d="M16.0075 17.0566L18.0749 14.9892C18.3534 14.7142 18.7057 14.5259 19.0891 14.4473C19.4725 14.3686 19.8705 14.403 20.2347 14.5461L22.7544 15.5522C23.1225 15.7016 23.4381 15.9566 23.6615 16.2851C23.8849 16.6136 24.006 17.0009 24.0097 17.3981V22.013C24.0075 22.2833 23.9507 22.5502 23.8427 22.7979C23.7346 23.0456 23.5776 23.2689 23.381 23.4543C23.1844 23.6397 22.9523 23.7834 22.6987 23.8767C22.445 23.9701 22.1752 24.0111 21.9053 23.9974C4.24875 22.8991 0.686064 7.94686 0.0122917 2.22441C-0.0189853 1.9434 0.00959167 1.65895 0.0961424 1.38977C0.182693 1.1206 0.325256 0.872797 0.514453 0.662676C0.703649 0.452554 0.935192 0.284873 1.19385 0.170663C1.4525 0.0564526 1.73241 -0.0016975 2.01515 3.77211e-05H6.47313C6.87094 0.00121524 7.2593 0.121379 7.58826 0.345073C7.91722 0.568768 8.17174 0.885763 8.31908 1.25529L9.32512 3.77501C9.47303 4.1378 9.51077 4.53614 9.43362 4.92025C9.35647 5.30436 9.16785 5.65723 8.89132 5.93478L6.82386 8.00224C6.82386 8.00224 8.0145 16.0598 16.0075 17.0566Z" fill="white" fill-opacity="0.8"/>
</svg>
