<svg width="22" height="24" viewBox="0 0 22 24" fill="none" xmlns="http://www.w3.org/2000/svg">
<path d="M12.5746 0.614887C12.1419 0.219002 11.5808 0 10.9992 0C10.4176 0 9.8565 0.219002 9.42386 0.614887L0.781 8.52409C0.535264 8.74915 0.338744 9.02432 0.204195 9.33174C0.0696459 9.63916 7.56766e-05 9.97196 0 10.3085V21.5994C0 22.2361 0.248341 22.8467 0.690391 23.2969C1.13244 23.7471 1.73199 24 2.35714 24H5.5C6.12515 24 6.7247 23.7471 7.16675 23.2969C7.6088 22.8467 7.85714 22.2361 7.85714 21.5994V15.1978C7.85714 14.9855 7.93992 14.782 8.08727 14.6319C8.23462 14.4819 8.43447 14.3976 8.64286 14.3976H13.3571C13.5655 14.3976 13.7654 14.4819 13.9127 14.6319C14.0601 14.782 14.1429 14.9855 14.1429 15.1978V21.5994C14.1429 22.2361 14.3912 22.8467 14.8332 23.2969C15.2753 23.7471 15.8748 24 16.5 24H19.6429C20.268 24 20.8676 23.7471 21.3096 23.2969C21.7517 22.8467 22 22.2361 22 21.5994V10.3085C21.9999 9.97196 21.9304 9.63916 21.7958 9.33174C21.6613 9.02432 21.4647 8.74915 21.219 8.52409L12.5761 0.614887H12.5746Z" fill="white" fill-opacity="0.8"/>
</svg>
