<svg width="27" height="24" viewBox="0 0 27 24" fill="none" xmlns="http://www.w3.org/2000/svg">
<path d="M4.99019 17.5106C5.15703 17.6781 5.28487 17.8803 5.36461 18.1029C5.44435 18.3254 5.47402 18.5628 5.4515 18.7981C5.33853 19.8872 5.12437 20.9635 4.81177 22.0128C7.05404 21.4937 8.42352 20.8925 9.04557 20.5775C9.39839 20.3988 9.80471 20.3564 10.1868 20.4585C11.2821 20.7505 12.411 20.8975 13.5446 20.8957C19.9676 20.8957 24.7961 16.3839 24.7961 11.2515C24.7961 6.12084 19.9676 1.60736 13.5446 1.60736C7.12155 1.60736 2.29303 6.12084 2.29303 11.2515C2.29303 13.6112 3.28478 15.8004 4.99019 17.5106ZM4.19776 23.7874C3.81692 23.8629 3.43485 23.932 3.05171 23.9947C2.73024 24.0462 2.48592 23.7118 2.6129 23.4129C2.75562 23.0763 2.88643 22.7348 3.00509 22.389L3.00992 22.3729C3.40854 21.2156 3.73323 19.8847 3.85218 18.6454C1.87994 16.6684 0.685669 14.0805 0.685669 11.2515C0.685669 5.03748 6.44324 0 13.5446 0C20.6459 0 26.4035 5.03748 26.4035 11.2515C26.4035 17.4656 20.6459 22.5031 13.5446 22.5031C12.271 22.5048 11.0027 22.3394 9.77209 22.0112C8.93627 22.434 7.13763 23.2039 4.19776 23.7874Z" fill="white" fill-opacity="0.8"/>
</svg>
