<svg width="30" height="22" viewBox="0 0 30 22" fill="none" xmlns="http://www.w3.org/2000/svg">
<path d="M12.8333 22C12.8333 22 11 22 11 20.1667C11 18.3333 12.8333 12.8333 20.1667 12.8333C27.5 12.8333 29.3333 18.3333 29.3333 20.1667C29.3333 22 27.5 22 27.5 22H12.8333ZM20.1667 11C21.6254 11 23.0243 10.4205 24.0558 9.38909C25.0872 8.35764 25.6667 6.95869 25.6667 5.5C25.6667 4.04131 25.0872 2.64236 24.0558 1.61091C23.0243 0.579463 21.6254 0 20.1667 0C18.708 0 17.309 0.579463 16.2776 1.61091C15.2461 2.64236 14.6667 4.04131 14.6667 5.5C14.6667 6.95869 15.2461 8.35764 16.2776 9.38909C17.309 10.4205 18.708 11 20.1667 11Z" fill="white" fill-opacity="0.9"/>
<path fill-rule="evenodd" clip-rule="evenodd" d="M9.56267 22C9.29088 21.4276 9.15534 20.8001 9.16667 20.1666C9.16667 17.6825 10.4133 15.125 12.716 13.3466C11.5667 12.9925 10.3692 12.8193 9.16667 12.8333C1.83333 12.8333 0 18.3333 0 20.1666C0 22 1.83333 22 1.83333 22H9.56267Z" fill="white" fill-opacity="0.9"/>
<path d="M8.25002 11C9.4656 11 10.6314 10.5172 11.4909 9.65761C12.3505 8.79807 12.8334 7.63228 12.8334 6.41671C12.8334 5.20113 12.3505 4.03534 11.4909 3.1758C10.6314 2.31626 9.4656 1.83337 8.25002 1.83337C7.03444 1.83337 5.86866 2.31626 5.00911 3.1758C4.14957 4.03534 3.66669 5.20113 3.66669 6.41671C3.66669 7.63228 4.14957 8.79807 5.00911 9.65761C5.86866 10.5172 7.03444 11 8.25002 11Z" fill="white" fill-opacity="0.9"/>
</svg>
