<?xml version="1.0" encoding="iso-8859-1"?>
<!-- Generator: Adobe Illustrator 19.0.0, SVG Export Plug-In . SVG Version: 6.00 Build 0)  -->
<svg version="1.1" id="Layer_1" xmlns="http://www.w3.org/2000/svg" xmlns:xlink="http://www.w3.org/1999/xlink" x="0px" y="0px"
	 viewBox="0 0 512 512" style="enable-background:new 0 0 512 512;" xml:space="preserve">
<g>
	<path style="fill:#F0C419;" d="M256,0C114.617,0,0,114.617,0,256c0,35.31,7.23,68.891,20.171,99.487
		c7.715-13.736,18.918-25.238,32.512-33.183c12.8,8.28,28.036,13.144,44.42,13.144s31.62-4.864,44.42-13.144
		c6.903,4.034,13.162,9.022,18.706,14.698c-0.097,0.124-0.177,0.256-0.265,0.388c0.247-0.044,0.45-0.15,0.724-0.15
		c0.441,0,0.786,0.141,1.156,0.23c9.084-11.237,19.738-21.133,32.362-28.504c17.929,11.591,38.85,17.655,61.793,17.655
		s43.864-6.065,61.793-17.655c12.597,7.362,23.287,17.205,32.38,28.407c0.556-0.459,1.254-0.759,2.101-0.856
		c5.429-5.473,11.476-10.302,18.167-14.212c12.809,8.28,28.036,13.144,44.42,13.144c16.393,0,31.62-4.864,44.42-13.144
		c13.594,7.945,24.806,19.456,32.521,33.192C504.753,324.899,512,291.31,512,256C512,114.617,397.383,0,256,0"/>
	<path style="fill:#F3D047;" d="M256,512c4.44,0,8.854-0.115,13.241-0.335C134.012,504.77,26.483,392.942,26.483,256
		S134.012,7.23,269.241,0.335C264.854,0.115,260.44,0,256,0C114.617,0,0,114.617,0,256S114.617,512,256,512"/>
	<path style="fill:#B49313;" d="M256,0c-4.44,0-8.854,0.115-13.241,0.335C377.988,7.23,485.517,119.058,485.517,256
		S377.988,504.77,242.759,511.665C247.146,511.885,251.56,512,256,512c141.383,0,256-114.617,256-256S397.383,0,256,0"/>
	<path style="fill:#F29C1F;" d="M335.448,194.207c0,43.882-35.566,79.448-79.448,79.448s-79.448-35.566-79.448-79.448
		s35.566-79.448,79.448-79.448S335.448,150.325,335.448,194.207"/>
	<g>
		<path style="fill:#E57E25;" d="M150.069,247.172c0,29.246-23.72,52.966-52.966,52.966s-52.966-23.72-52.966-52.966
			s23.72-52.966,52.966-52.966S150.069,217.927,150.069,247.172"/>
		<path style="fill:#E57E25;" d="M361.897,247.172c0,29.246,23.711,52.966,52.966,52.966c29.246,0,52.966-23.72,52.966-52.966
			s-23.72-52.966-52.966-52.966C385.607,194.207,361.897,217.927,361.897,247.172"/>
		<path style="fill:#E57E25;" d="M132.414,467.862v12.341l-21.107-13.03c-40.13-27.551-72.033-66.207-91.207-111.581
			c7.715-13.771,18.953-25.318,32.583-33.289c12.8,8.28,28.036,13.144,44.42,13.144s31.62-4.864,44.42-13.144
			c6.903,4.034,20.648,9.022,26.2,14.698c-17.355,21.248-27.816,48.313-27.816,77.895l-7.495,49.54"/>
		<path style="fill:#E57E25;" d="M379.552,467.862v12.341l21.107-13.03c40.13-27.551,72.033-66.207,91.207-111.581
			c-7.715-13.771-18.953-25.318-32.583-33.289c-12.8,8.28-28.036,13.144-44.42,13.144s-31.62-4.864-44.42-13.144
			c-6.903,4.034-21.954,9.022-27.498,14.698c17.346,21.248,27.816,48.313,27.816,77.895l8.792,49.54"/>
	</g>
	<path style="fill:#F29C1F;" d="M317.793,308.966c-17.929,11.591-38.85,17.655-61.793,17.655s-43.864-6.065-61.793-17.655
		c-36.679,21.433-61.793,60.381-61.793,105.931v65.306C169.057,500.445,211.174,512,256,512s86.943-11.555,123.586-31.797v-65.306
		C379.586,369.346,354.472,330.399,317.793,308.966"/>
</g>
<g>
</g>
<g>
</g>
<g>
</g>
<g>
</g>
<g>
</g>
<g>
</g>
<g>
</g>
<g>
</g>
<g>
</g>
<g>
</g>
<g>
</g>
<g>
</g>
<g>
</g>
<g>
</g>
<g>
</g>
</svg>
