<svg width="26" height="24" viewBox="0 0 26 24" fill="none" xmlns="http://www.w3.org/2000/svg">
<path d="M4.31419 17.5106C4.48103 17.6781 4.60888 17.8803 4.68862 18.1029C4.76835 18.3254 4.79802 18.5628 4.77551 18.7981C4.66254 19.8872 4.44837 20.9635 4.13578 22.0128C6.37805 21.4937 7.74752 20.8925 8.36957 20.5775C8.72239 20.3988 9.12871 20.3564 9.5108 20.4585C10.6061 20.7505 11.735 20.8975 12.8686 20.8957C19.2916 20.8957 24.1201 16.3839 24.1201 11.2515C24.1201 6.12084 19.2916 1.60736 12.8686 1.60736C6.44556 1.60736 1.61704 6.12084 1.61704 11.2515C1.61704 13.6112 2.60878 15.8004 4.31419 17.5106ZM3.52176 23.7874C3.14093 23.8629 2.75886 23.932 2.37571 23.9947C2.05424 24.0462 1.80992 23.7118 1.9369 23.4129C2.07962 23.0763 2.21044 22.7348 2.3291 22.389L2.33392 22.3729C2.73255 21.2156 3.05724 19.8847 3.17618 18.6454C1.20395 16.6684 0.00967407 14.0805 0.00967407 11.2515C0.00967407 5.03748 5.76725 0 12.8686 0C19.9699 0 25.7275 5.03748 25.7275 11.2515C25.7275 17.4656 19.9699 22.5031 12.8686 22.5031C11.595 22.5048 10.3267 22.3394 9.0961 22.0112C8.26027 22.434 6.46163 23.2039 3.52176 23.7874Z" fill="white" fill-opacity="0.8"/>
</svg>
