<svg width="30" height="22" viewBox="0 0 30 22" fill="none" xmlns="http://www.w3.org/2000/svg">
<path d="M27.5 22C27.5 22 29.3333 22 29.3333 20.1667C29.3333 18.3333 27.5 12.8333 20.1667 12.8333C12.8333 12.8333 11 18.3333 11 20.1667C11 22 12.8333 22 12.8333 22H27.5ZM12.8737 20.1667C12.8601 20.1648 12.8467 20.1624 12.8333 20.1593C12.8352 19.6753 13.1395 18.271 14.2267 17.006C15.2387 15.8198 17.017 14.6667 20.1667 14.6667C23.3145 14.6667 25.0928 15.8217 26.1067 17.006C27.1938 18.271 27.4963 19.6772 27.5 20.1593L27.4853 20.163C27.4768 20.1644 27.4683 20.1657 27.4597 20.1667H12.8737ZM20.1667 9.16667C21.1391 9.16667 22.0718 8.78036 22.7594 8.09272C23.447 7.40509 23.8333 6.47246 23.8333 5.5C23.8333 4.52754 23.447 3.59491 22.7594 2.90727C22.0718 2.21964 21.1391 1.83333 20.1667 1.83333C19.1942 1.83333 18.2616 2.21964 17.5739 2.90727C16.8863 3.59491 16.5 4.52754 16.5 5.5C16.5 6.47246 16.8863 7.40509 17.5739 8.09272C18.2616 8.78036 19.1942 9.16667 20.1667 9.16667ZM25.6667 5.5C25.6667 6.22227 25.5244 6.93747 25.248 7.60476C24.9716 8.27205 24.5665 8.87837 24.0558 9.38909C23.545 9.89981 22.9387 10.3049 22.2714 10.5813C21.6041 10.8577 20.8889 11 20.1667 11C19.4444 11 18.7292 10.8577 18.0619 10.5813C17.3946 10.3049 16.7883 9.89981 16.2776 9.38909C15.7669 8.87837 15.3617 8.27205 15.0853 7.60476C14.8089 6.93747 14.6667 6.22227 14.6667 5.5C14.6667 4.04131 15.2461 2.64236 16.2776 1.61091C17.309 0.579463 18.708 0 20.1667 0C21.6254 0 23.0243 0.579463 24.0558 1.61091C25.0872 2.64236 25.6667 4.04131 25.6667 5.5ZM12.716 13.3467C11.9826 13.1157 11.2267 12.9639 10.461 12.8938C10.0308 12.8529 9.59883 12.8327 9.16667 12.8333C1.83333 12.8333 0 18.3333 0 20.1667C0 21.3895 0.6105 22 1.83333 22H9.56267C9.29088 21.4277 9.15534 20.8002 9.16667 20.1667C9.16667 18.315 9.85783 16.423 11.165 14.8427C11.6105 14.3037 12.1293 13.7995 12.716 13.3467ZM9.02 14.6667C7.93495 16.297 7.34881 18.2083 7.33333 20.1667H1.83333C1.83333 19.69 2.134 18.2783 3.22667 17.006C4.22583 15.84 5.962 14.7033 9.02 14.6685V14.6667ZM2.75 6.41667C2.75 4.95798 3.32946 3.55903 4.36091 2.52758C5.39236 1.49613 6.79131 0.916667 8.25 0.916667C9.70869 0.916667 11.1076 1.49613 12.1391 2.52758C13.1705 3.55903 13.75 4.95798 13.75 6.41667C13.75 7.87536 13.1705 9.2743 12.1391 10.3058C11.1076 11.3372 9.70869 11.9167 8.25 11.9167C6.79131 11.9167 5.39236 11.3372 4.36091 10.3058C3.32946 9.2743 2.75 7.87536 2.75 6.41667ZM8.25 2.75C7.27754 2.75 6.34491 3.13631 5.65728 3.82394C4.96964 4.51158 4.58333 5.44421 4.58333 6.41667C4.58333 7.38913 4.96964 8.32176 5.65728 9.00939C6.34491 9.69703 7.27754 10.0833 8.25 10.0833C9.22246 10.0833 10.1551 9.69703 10.8427 9.00939C11.5304 8.32176 11.9167 7.38913 11.9167 6.41667C11.9167 5.44421 11.5304 4.51158 10.8427 3.82394C10.1551 3.13631 9.22246 2.75 8.25 2.75Z" fill="white" fill-opacity="0.8"/>
</svg>
