<svg width="26" height="24" viewBox="0 0 26 24" fill="none" xmlns="http://www.w3.org/2000/svg">
<path d="M22.1717 24H22.0104C3.36053 22.9569 0.712533 7.65231 0.342384 2.98154C0.312558 2.61838 0.356704 2.25307 0.472292 1.90653C0.587879 1.56 0.772636 1.23905 1.01598 0.962079C1.25932 0.685108 1.55646 0.457558 1.89038 0.292467C2.22429 0.127376 2.58842 0.0279894 2.9619 8.65468e-07H8.19145C8.57162 -0.00035707 8.94314 0.110317 9.25789 0.317689C9.57264 0.52506 9.81611 0.819573 9.95678 1.16308L11.3994 4.61539C11.5383 4.95097 11.5728 5.31884 11.4985 5.67332C11.4243 6.02779 11.2446 6.35324 10.9818 6.60923L8.96022 8.59385C9.276 10.3392 10.1354 11.948 11.4221 13.2027C12.7088 14.4575 14.3607 15.2975 16.1544 15.6092L18.214 13.6246C18.4811 13.3718 18.8189 13.2012 19.1852 13.1339C19.5514 13.0665 19.9299 13.1056 20.2735 13.2462L23.8516 14.64C24.1995 14.7811 24.4963 15.0198 24.7042 15.3255C24.9121 15.6313 25.0217 15.9904 25.019 16.3569V21.2308C25.019 21.9652 24.719 22.6696 24.1851 23.1889C23.6511 23.7082 22.9269 24 22.1717 24ZM3.18969 1.84615C2.93797 1.84615 2.69656 1.94341 2.51857 2.11652C2.34058 2.28963 2.24059 2.52442 2.24059 2.76923V2.84308C2.67717 8.30769 5.47702 21.2308 22.1148 22.1538C22.2394 22.1613 22.3644 22.1448 22.4825 22.1052C22.6006 22.0656 22.7096 22.0038 22.803 21.9232C22.8965 21.8425 22.9727 21.7448 23.0272 21.6355C23.0817 21.5262 23.1136 21.4074 23.1208 21.2862V16.3569L19.5427 14.9631L16.8188 17.5938L16.3632 17.5385C8.10603 16.5323 6.98609 8.50154 6.98609 8.41846L6.92914 7.97539L9.62459 5.32616L8.20094 1.84615H3.18969Z" fill="white" fill-opacity="0.8"/>
</svg>
