<svg width="23" height="24" viewBox="0 0 23 24" fill="none" xmlns="http://www.w3.org/2000/svg">
<path d="M10.1623 0.603754C10.595 0.215036 11.156 0 11.7377 0C12.3193 0 12.8804 0.215036 13.313 0.603754L21.9559 8.36975C22.2016 8.59074 22.3981 8.86093 22.5327 9.16278C22.6672 9.46464 22.7368 9.79141 22.7369 10.1219V21.2083C22.7369 21.8335 22.4885 22.433 22.0465 22.8751C21.6044 23.3171 21.0049 23.5655 20.3797 23.5655H16.4512C15.826 23.5655 15.2265 23.3171 14.7844 22.8751C14.3424 22.433 14.094 21.8335 14.094 21.2083V15.7083C14.094 15.4999 14.0112 15.3001 13.8639 15.1527C13.7165 15.0054 13.5167 14.9226 13.3083 14.9226H10.1654C9.95706 14.9226 9.75721 15.0054 9.60986 15.1527C9.46251 15.3001 9.37973 15.4999 9.37973 15.7083V21.2083C9.37973 21.8335 9.13139 22.433 8.68934 22.8751C8.24729 23.3171 7.64774 23.5655 7.02259 23.5655H3.09402C2.46887 23.5655 1.86932 23.3171 1.42727 22.8751C0.985219 22.433 0.736877 21.8335 0.736877 21.2083V10.1219C0.736877 9.45404 1.01973 8.81761 1.51945 8.36975L10.1623 0.603754ZM12.2617 1.7729C12.1176 1.64347 11.9306 1.57188 11.7369 1.57188C11.5431 1.57188 11.3562 1.64347 11.212 1.7729L2.56916 9.5389C2.48729 9.61239 2.42176 9.70227 2.37682 9.8027C2.33189 9.90313 2.30854 10.0119 2.30831 10.1219V21.2083C2.30831 21.4167 2.39109 21.6166 2.53844 21.7639C2.68579 21.9113 2.88564 21.994 3.09402 21.994H7.02259C7.23098 21.994 7.43083 21.9113 7.57818 21.7639C7.72553 21.6166 7.80831 21.4167 7.80831 21.2083V15.7083C7.80831 15.0832 8.05665 14.4836 8.4987 14.0416C8.94075 13.5995 9.5403 13.3512 10.1654 13.3512H13.3083C13.9335 13.3512 14.533 13.5995 14.9751 14.0416C15.4171 14.4836 15.6654 15.0832 15.6654 15.7083V21.2083C15.6654 21.4167 15.7482 21.6166 15.8956 21.7639C16.0429 21.9113 16.2428 21.994 16.4512 21.994H20.3797C20.5881 21.994 20.788 21.9113 20.9353 21.7639C21.0827 21.6166 21.1654 21.4167 21.1654 21.2083V10.1219C21.1652 10.0119 21.1419 9.90313 21.0969 9.8027C21.052 9.70227 20.9865 9.61239 20.9046 9.5389L12.2617 1.7729Z" fill="white" fill-opacity="0.8"/>
</svg>
