<svg width="17" height="17" viewBox="0 0 17 17" fill="none" xmlns="http://www.w3.org/2000/svg">
<path d="M12.0576 12.0576C12.2926 11.8226 12.2526 11.4015 11.9682 11.1171L9.56645 8.71535L11.9222 6.35959C12.2066 6.07525 12.2465 5.65423 12.0115 5.41921C11.7765 5.1842 11.3555 5.22418 11.0711 5.50852L8.71538 7.86428L6.13488 5.28378C5.85049 4.9994 5.42943 4.95938 5.19442 5.19439C4.9594 5.42941 4.99942 5.85047 5.28381 6.13485L7.86431 8.71535L5.3299 11.2498C5.04557 11.5341 5.00558 11.9551 5.2406 12.1901C5.47562 12.4251 5.89664 12.3852 6.18097 12.1008L8.71538 9.56643L11.1171 11.9682C11.4015 12.2526 11.8226 12.2926 12.0576 12.0576Z" fill="white"/>
<path fill-rule="evenodd" clip-rule="evenodd" d="M17 8.5C17 13.1944 13.1944 17 8.5 17C3.80558 17 0 13.1944 0 8.5C0 3.80558 3.80558 0 8.5 0C13.1944 0 17 3.80558 17 8.5ZM15.41 8.5C15.41 12.3163 12.3163 15.41 8.5 15.41C4.68371 15.41 1.59 12.3163 1.59 8.5C1.59 4.68371 4.68371 1.59 8.5 1.59C12.3163 1.59 15.41 4.68371 15.41 8.5Z" fill="white"/>
</svg>
